<svg xmlns="http://www.w3.org/2000/svg" width="335" height="335" viewBox="0 0 335 335">
  <path d="M175.645 17.358c-1.236.407-2.42.983-3.604 1.536-7.56 3.552-15.52 4.543-23.8 3.943-4.72-.342-9.46-.3-14.19-.426-3.49-.09-11.14 3.23-11.61 3.84-.28.38-.35.96-.4 1.46-.05.52 1.25 1.2 1.85.92 5.36-2.52 10.99-3.41 16.88-2.8 1.31.14 13.93.33 18.9-.15 4.99-.48 9.85-1.71 14.38-3.94 1.13-.55 2.07-1.55 2.98-2.47.24-.24.2-1.06-.03-1.37-.24-.33-.96-.63-1.32-.51z"/>
  <path d="M290.898 160.398c-.37-4.38-.758-8.578-3.325-12.307-.625-.9-1.345-1.74-2.136-2.51-1.142-1.1-1.015-1.49-.944-3.16l.312-7.59c.457-11.09 1.16-22.21 1.22-33.31.053-9.05-.477-18.49-5.738-26.2-1.24-1.81-2.69-3.45-4.29-4.96-1.437-1.35-3.227-2.79-4.053-4.62-.87-1.94-1.01-4.28-1.6-6.33-.513-1.76-1.13-3.5-1.88-5.18-2.934-6.59-7.895-11.88-14.182-15.41-1.836-1.03-3.908-1.65-5.72-2.68-1.913-1.08-1.622-3.1-2.185-4.98-1.133-3.78-4.09-6.47-7.287-8.59-4.01-2.66-8.514-4.45-13.2-5.49-2.41-.53-4.806-.84-7.265-.98-2.515-.14-4.998-1.1-7.402-1.81-5.076-1.48-10.057-3.31-15.17-4.65-4.908-1.28-9.89-1.77-14.828-2.8-2.52-.52-4.896-1.6-7.434-2.12-2.39-.49-4.83-.77-7.27-.9-5.27-.28-10.66-.13-15.93.12-4.92.24-9.95.64-14.76 1.73-4.95 1.12-9.64 3.25-14.05 5.75-4.24 2.41-8.26 5.1-12.75 7.06-4.51 1.97-9.38 2.51-13.88 4.32-2.43.98-2.86 2.88.27 2.67 2.36-.16 4.71-.41 7.04-.83 4.84-.87 9.09-2.66 13.38-4.99 8.76-4.76 16.86-10.04 27.02-11.16 5.13-.56 10.39-.35 15.55-.47 5.26-.12 10.49-.39 15.66.77 5.07 1.14 10.08 2.34 15.18 3.36 4.84.97 13.46 2.94 17.67 5.64-.81 1.31-11.59.66-9.53 3.35.98 1.27 3.01.98 4.37.92 2.18-.09 4.37-.21 6.56-.4 8.15-.73 15.65-1.89 23.45 1.4 3.13 1.32 6.43 3.13 8.81 5.58 1.1 1.14 2.55 2.68 2.85 4.28.33 1.73-.85 2.35-1.32 3.79-1.15 3.54 4.92 3.1 6.79 3.55 2.95.7 5.56 2.33 7.81 4.32 2.58 2.29 4.79 5.01 6.63 7.92 1.62 2.56 3.97 6.07 4.48 9.11.33 1.94-1.52 2.61-1.73 4.27-.14 1.1 2.59 3.01 3.57 3.93 2.62 2.47 5.36 4.84 7.47 7.78 3.99 5.56 5.34 12.3 5.74 19.02.48 8.17-.21 16.56-.44 24.74-.21 7.55-.09 15.16-1.43 22.62-.51 2.87-1.5 5.66-3.77 7.62-1.47 1.27-2.89 2.53-3.42 4.16-.12-.73-.29-1.42-.56-2.01-.46-1.01-2.11-2.84-3.19-1.52-.78.95.24 2.72.54 3.68 1.31 3.96-.74 8.4-.94 12.38-.1 2.06 1.17 2.23 2.06.44.75-1.51 1.3-3.12 1.65-4.78.32-1.53.62-3.57.65-5.56 1.69-1.61 3.34-3.224 5.17-4.68 1.19-.946 3.44-3.36 5.04-3.355 3.82.02 3.96 9.81 4.37 12.39.71 4.416-.04 8.79-2.29 12.664-2.44 4.2-5.37 7.89-7.33 12.4-2.1 4.82-3.99 9.65-6.28 14.39-1.9 3.94-4.2 7.31-8.68 8.47-.64.17-2.95.46-2.81 1.45.1.7.62 1.21 1.21 1.52 1.87.98 4 .13 5.54-.99 3.69-2.69 6.21-6.11 8.04-10.26 2.16-4.9 12.327-23.16 14.497-27.72 2.23-4.66.916-9.24.5-14.16zm-243.743 6.587c-.01.13.014.252.01.38.046-.577.087-1.325-.01-.38zm67.395-35.802c-1.3-.02-2.59.185-3.86.44-2.708.55-5.34 1.38-8.113 1.56-3.05.2-5.926-.717-8.943.09-2.527.67-4.81 1.9-7.13 3.056-4.31 2.14-6.944 4.53-8.896 9-.726 1.66-2.166 3.8-.27 5.17 1.548 1.11 4.436.05 5.984-.66 2.385-1.1 4.008-2.81 6.772-3.12 1.146-.13 2.37.18 3.464-.23 1.01-.39 1.713-1.31 2.527-1.97 2.18-1.77 4.03-1.62 6.658-1.53 2.657.09 5.022-1.5 7.668-1.22 2.98.31 5.36 1.52 8.43.79 2.66-.64 5.05-.76 7.73-.09 2.74.69 5.47 1.75 8.05 2.89 2.68 1.19 4.36.88 6.91-.5.84-2.18 3.17-5.91 2.46-8.32-.78-2.67-4.32-3.47-6.59-4.25-2.97-1.02-5.78-2.07-8.98-2.03-3.16.03-6.05 1.82-9.15 1.65-1.59-.1-3.06-.76-4.7-.78zm-31.416 14.973c.722-1.053.73-.062 1.163.237-.39-.077-.775-.157-1.163-.237zm44.286-12.123c2.484-.53 4.056-.188 6.455.55 1.463.448 5.177.917 5.998 2.233.627.998-.438 4.05-.976 5.13-.587 1.175-1.467 1.175-2.728.8-.98-.293-1.93-.754-2.88-1.125-1.92-.75-3.86-1.49-5.89-1.89-1.86-.37-4.19-.72-6.08-.42-2.08.34-3.72 1.19-5.9.9-1.88-.24-3.75-1.75-5.61-1.7-1.7.05-3.68 1.34-5.51 1.57-2.09.27-4.32-.41-6.34.09-1.79.45-2.83 1.98-4.4 2.82-1.85.99-3.65.94-5.67 1-1.65.06-2.94.77-3.35 2.49h-.01v.01c.27-1.14-.05-.75-.13-.37-.79-2.4-1-3.54 1.52-5.01 2.14-1.25 4.3-2.47 6.52-3.58 4.55-2.27 9.5-1.06 14.44-1.79 2.36-.35 4.85-1.05 7.22-1.12 2.09-.07 4.12.61 6.2.62 2.38.01 4.77-.66 7.08-1.15z"/>
  <path d="M188.07 128.03c-4.598.872-7.315 2.56-9.25 6.84-.86 1.905-2.78 4.02-1.334 6.102 1.63 2.34 3.976 1.617 6.13.646 2.454-1.108 4.776-1.598 7.407-2.092 2.192-.416 3.43-2.074 5.502-2.61 2.345-.605 5.312.38 7.77.274 2.35-.1 4.69-.398 7.048-.296 1.59.073 3.11.77 4.635.86.926.06 1.773-.364 2.7-.473 2.444-.28 4.825.5 7.19.99 2.495.52 5.062.83 7.465 1.73 2.403.91 4.475 1.21 7.004 1.63.826-.34 3.186-.77 3.617-1.66.432-.89-.355-1.98-.86-2.65-1.833-2.42-4.667-4.35-6.972-6.31-1.105-.94-2.19-2.07-3.396-2.88-1.41-.94-3.172-.74-4.892-.81-3.024-.11-6.03-.72-9.047-.76-2.65-.03-5.176.94-7.824.77-2.496-.16-4.676-1.42-7.123-1.72-2.84-.35-5.575.52-8.33 1.06-2.474.5-4.965.92-7.44 1.38zm20.272 2.225c2.238.71 3.992.54 6.242.046 4.37-.95 8.494.16 12.838.6 1.12.11 2.897-.07 3.922.38.77.35 1.648 1.64 2.27 2.23.59.57 3.725 2.76 3.48 3.65-.51 1.86-3.904-.64-4.61-1.03-1.845-1.03-3.08-.24-5-.38-1.684-.12-3.138-1.07-4.742-1.49-1.894-.49-3.61.25-5.507.41-2.455.21-4.65-.34-7.055-.66-2.128-.28-4.17.2-6.28.32-2.188.13-4.236-.55-6.398-.53-2.043.02-3.51.79-5.215 1.8-1.847 1.11-3.252.58-5.232 1.02-1.86.42-3.47 1.57-4.916 2.75-.06-.38-.08-.7-.08-.99-.16-3.1 1.05-5.54 4.32-6.46 4.9-1.39 10.12-1.99 15.12-2.93 2.46-.46 4.47.55 6.83 1.3zM197.877 59.2c1.04 1.627 1.662 2.55 3.48 3.478 1.77.906 3.788 1.398 5.675 2.013 4.242 1.39 8.498 2.74 12.756 4.08 3.564 1.13 7.2 1.42 10.902 1.82 3.637.4 7.418 1.04 11.082.84 1.48-.08 9.04-1.03 7.496-3.94-.742-1.4-2.957-.69-4.13-.45-1.81.36-3.636.51-5.478.4-1.943-.12-3.812-.66-5.75-.78-1.632-.1-3.26-.16-4.89-.33-3.506-.37-6.974-1.07-10.367-2.02-6.42-1.8-12.44-3.92-19.026-4.85-.414-.07-.973-.15-1.75-.23zM90.265 63.853c-.165-1.045-.562-3.706-2.27-2.484-1.155.82-1.747 4.28-2.243 5.65-1.543 4.26-3.06 8.52-4.635 12.77-2.517 6.79-5.537 13.12-10.125 18.77-1.26 1.55-2.467 3.13-3.634 4.75-.542.75-2.688 2.87-2.15 3.9.96 1.83 5.964-3.86 6.782-4.72 4.77-5 8.155-10.67 10.7-17.06 2.768-6.94 6.143-14.27 7.575-21.6zM45.018 90.87c1.275-7.184 4.708-12.905 8.087-19.233.74-1.39 2.515-3.644 2.228-5.31-.254-1.472-1.274-1.272-2.228-.592-2.496 1.79-4.097 5.652-5.583 8.286-3.628 6.45-6.86 13.17-7.186 20.68-.148 3.52.193 7.03.754 10.5.51 3.16 2.554-6.59 3.928-14.32zM49.14 63.6c.774.072.73.022.513-.027 3.24-.08 6.37-3.648 8.66-5.52 2.93-2.395 5.79-4.902 8.3-7.748 2.164-2.462 4.16-5.042 6.442-7.403 2.37-2.458 5.038-4.562 7.465-6.95.64-.63 5.648-5.733 2.102-5.542-1.3.073-2.75 1.782-3.717 2.554-1.28 1.02-2.543 2.062-3.78 3.13-5.278 4.562-9.483 10.088-14.44 14.97-2.322 2.287-4.762 4.46-7.334 6.47-1.42 1.113-3.04 2.058-4.29 3.367-1.28 1.34-1.51 1.74.09 2.7zm190.083-16.097c-2.79-.733-6.582.38-9.457.43-6.506.11-12.984-1.14-18.895-3.897 1.36.634 5.53 2.596-.07-.03-.44-.208-.37-.177-.08-.043-2.35-1.125-5.07-3.007-7.69-2.964 1.59 5.66 9.65 8 14.78 9.44 6.04 1.69 12.37 2.02 18.52.83 1.31-.26 3.28-.33 4.04-1.65.63-1.08.04-1.81-1.14-2.12z"/>
  <path d="M210.872 44.04c-.06-.028-.105-.05-.152-.074.025.012.053.026.08.042.022.007.05.02.072.03zm20.994 14.517c-3.546-.48-6.98-1.43-10.353-2.61-3.394-1.188-6.714-2.91-10.322-2.91.35 2.833 4.34 4.388 6.6 5.51 2.94 1.455 6.03 2.564 9.21 3.355 3.29.814 6.69 1.367 10.08 1.395 2.99.022 7.88-.08 10.43-1.882.9-.634 1.56-1.832.59-2.638-1.1-.922-4.14-.224-5.42-.146-3.64.22-7.16.42-10.8-.07zm-130.112-13.68c-2.9 2.12-6.04 3.75-9.243 5.355-3.33 1.675-6.71 3.27-10.04 4.95-1.53.77-3.06 1.56-4.57 2.365-1.7.906-.36 2.635.31 2.423 1.53-.49 3.06-1.01 4.58-1.555 3.27-1.183 6.48-2.508 9.62-4 3.14-1.495 6.21-3.162 9.16-5.005 2.1-1.31 6.45-3.71 6.58-6.612.15-3.318-5.41 1.386-6.36 2.078zM271.52 181.5c-2.538 1.958-2.723 5.15-3.307 8.138-.21 1.082-1.12 3.21-.026 3.896 1.397.875 1.93-1.275 2.46-2.268 1.42-2.65 2.21-5.61 4.31-7.854 1.962-2.093 3.634-3.992 4.74-6.69.952-2.318 1.487-4.775 1.956-7.234.06-.283.12-.617.203-1.057-.188-1.3-.12-2.82-1.625-3.31-.97-.32-2.35.22-2.81 1.2-.52 1.1.47 2.64.36 3.92-.13 1.52-.76 3.03-1.26 4.46-1.02 2.94-2.54 4.93-4.99 6.82zM55.833 168.58c-.46-.974-1.836-1.515-2.815-1.196-1.505.492-1.437 2.023-1.624 3.318.08.436.146.766.204 1.055.468 2.457 1.002 4.914 1.955 7.234 1.108 2.7 2.78 4.6 4.74 6.7 2.103 2.24 2.894 5.2 4.313 7.85.53.99 1.06 3.14 2.458 2.27 1.095-.69.185-2.81-.026-3.89-.588-2.99-.772-6.18-3.307-8.14-2.44-1.89-3.96-3.88-4.99-6.81-.5-1.42-1.13-2.94-1.26-4.45-.11-1.28.88-2.82.36-3.91zm14.434-30.416c-.022.854-.472 3.998.042 4.693.72.985 1.5-.174 1.85-.783 2.95-5.13 2.49-12.478 2.62-18.188-.13-3.37.09-6.904-.44-10.24-.16-.99-2.04-6.98-3.56-4.214-.52.94.17 3.33.28 4.315.17 1.578.31 3.15.28 4.742-.05 3.29-.29 6.6-.5 9.89-.2 3.26-.49 6.52-.59 9.78zm173.34-53.95c-4.46.09 2.825.084 0 0z"/>
  <path d="M251.032 80.073c-1.84-.68-4.27.27-6.2.26-2.063-.01-4.106-.348-6.07-.958-1.808-.562-4.353-2.362-6.292-1.602-2.02.79-.47 2.538.605 3.355 3.034 2.305 6.778 3.16 10.536 3.088 2.17.062 4.37-.265 6.34-1.206 1.25-.598 3.23-2.15 1.09-2.937zm-7.608 28.757c1.48 1.426 2.47-1.877 2.96-2.89 1.837-3.77 3.485-7.995 3.503-12.24.008-1.65.262-4.492-1.387-5.545-1.908-1.217-2.03 1.27-2.105 2.512.734 4.428-.93 8.658-2.416 12.74-.48 1.308-1.75 4.275-.56 5.423zM44.65 124.967c-1.04 1.19.165 4.766.365 6.2.28 1.99.562 3.983.864 5.97.32 2.14.45 4.52 1.29 6.527.73 1.76 1.35 3.785 3.15 2.18-.31-4.37-1.15-8.728-1.89-13.043-.16-.96-1.26-10.73-3.79-7.83zm.8-22.617c-1.398.74-1.552 4.508-1.88 5.924-.448 1.96-.897 3.918-1.327 5.883-.46 2.117-1.195 4.383-1.125 6.56.06 1.905-.088 4.02 2.162 3.164 1.278-4.18 2.05-8.56 2.902-12.85.19-.96 2.66-10.47-.732-8.67zm205.538 2.1c-.77 2.143-.752 4.853-1.315 7.096-1.113 4.424-2.998 8.612-4.06 13.032 3.04-2.74 2.89-2.76 2.06-2.076 1.9-2.146 3.438-4.598 4.512-7.27 1.086-2.703 2.865-7.754 1.836-10.648-.62-1.743-2.39-1.9-3.03-.135zm9.544 44.1c-.035.346-.048.485 0 0zm.108-1.093l-.036.334-.04.44c.024-.26.052-.55.075-.77zm-7.64-5.824c1.037-1.475 1.875-3.076 2.508-4.762 1.088-2.89 2.424-7.66 1.545-10.74-.322-1.13-1.764-3.32-3.115-2.11-.975.88-.188 2.91-.03 3.96.73 4.38-2.144 8.72-3 12.88-.44 2.15.867 2.53 2.092.79zm9.46 49.973c.857-.69 1.624-1.494 2.282-2.38 1.135-1.52 2.73-4.102 2.733-6.06.004-.725-.474-2.255-1.476-1.775-.73.35-.61 1.68-.69 2.33-.32 2.7-2.75 4.78-3.96 7.07-.62 1.19.08 1.64 1.1.82z"/>
  <path d="M261.372 182.16c2.106.312 3.057-5.987 3.23-7.343.12-.912.357-2.64.22-4.193.005-.998-.02-1.8-.018-2.064.018-1.537-1.42-8.887-1.812-9.79-.728-1.654-1.646-3.217-2.69-4.688-.5-.703-.673-1.092-1.097-1.223.73-1.61 1.23-3.32 1.4-5.07.188-1.86-1.682-6.03-3.81-3.22-.915 1.2-.362 3.07-.48 4.46-.14 1.69-.587 3.3-1.227 4.87-.106.26-.32.72-.537 1.24-1.75 1.3-3.41 2.72-5.26 3.89-.21.18-.59.43-1.27.77-1.85-.55-4.16-.88-5.88-1.75-1.42-.72-2-2.39-2.81-3.78-1.69-2.91-4.59-4.43-7.69-5.45-4.06-1.34-8.34-1.8-12.6-1.69-2.85.07-14.83-.95-15.43 2.72 5.24.41 17.11.87 22.27 1.95 4.15.87 8.95 1.64 11.11 5.73 2.46 4.63.86 9.39 1.13 14.3.15 2.62-.15 5.25-.73 7.8-.27 1.21-.61 2.41-1 3.6-.51 1.57-.58 1.57.23 2.95 2.66-2.49 4.77-5.49 4.73-9.27-.01-1.38-.13-11.36.51-11.41 2.41-.15 7.43.81 8.15 0 .5-.56 1.26-1.03 1.84-1.52 1.18-1.02 2.31-2.08 3.58-2.97.72-.51 1.46-.97 2.26-1.34 1.07-.5 1.29-.76 2.03.02 1.04 1.1-.07 22.17 1.69 22.43zm-3.276 35.346c.09.136.246.377.357.556-.076-.12-.18-.286-.357-.556zm.358.552c.192.298.134.21 0 0zm-.4-.612c.02.025.02.04.04.06-.01-.017-.03-.048-.04-.06z"/>
  <path d="M258.055 217.442c-.05-.076-.035-.057 0 0-.4-.61-1.73-.63-2.34-.84 2.666 18.047-4.842 36.45-5.99 39.535-2.23 5.995-5.69 12.055-9.262 17.354-1.896 2.82-3.912 5.57-6.006 8.24-.982 1.26-9.906 13.91-11.8 14.01 1.783-3.35 8.703-14.64 10.226-18.13 1.045-2.4 2.604-5.9-.52-7.44-4.58 8.75-9.556 17.03-14.894 25.34-5.09 7.91-10.73 16.25-17.91 22.45-3.13 2.7-6.45 3.99-10.46 4.74-4.68.88-9.03 2.72-13.86 2.85-4.73.14-9.54-.24-14.22-.93-4.47-.66-9.52-1.4-13.66-3.31-1.97-.9-3.69-2.46-5.43-3.74-2-1.48-3.99-2.98-5.93-4.55-3.67-2.99-7.19-4.99-10.45-8.41-3.51-3.7-6.3-8.67-9.13-12.93-2.75-4.12-5.46-8.26-8.17-12.41-5.35-8.21-8.73-17.32-13.57-25.81-.54-.94-2.39-5.32-3.47-5.3-2.15.06.36 4.5.67 5.3 1.76 4.5 3.5 9.01 5.52 13.4 4.08 8.85 9.51 16.76 14.6 25.03 1.2 1.95 2.59 3.9 3.63 5.95.2.41.86 1.56.06 1.98-.64.33-2.26-1.49-2.58-1.81-3.4-3.29-6.33-7.02-9.49-10.56-18.41-20.6-21.33-51.84-22.25-57.25-.27-3.65-.52-7.31-.99-10.95-.64-5-1.82-9.88-2.79-14.82-.22-1.09-.41-2.19-.61-3.29-.29-2.23-.56-4.46-.78-6.69.22-.69.82-.94 2.16-.03 3.83 2.63 7.71 5 12.23 6.24 9.34 2.59 20.01 2.72 29.55 1.33 4.19-.61 8.68-1.3 12.09-4.01 3.45-2.74 5.67-7.36 7.6-11.22 2.13-4.27 3.67-8.79 4.61-13.47.21-1.04.39-2.09.55-3.14.19-1.35.34-1.68 1.38-2.58.59-.5 1.88-1.29 1.91-1.99.03-.76-.76-1.35-1.29-1.73-1.6-1.14-2.3-1.88-3.33-3.63-1.06-1.81-2.41-3.27-4.09-4.52-1.46-1.08-3.09-1.86-4.91-2.04-2.42-.24-4.42-.73-6.75-1.46-4.54-1.43-9.28-2.54-14.02-2.94-2.12-.18-4.36-.32-6.47.018-2.27.36-2.98 1.71-4.72 2.94-3.14 2.21-7.91 1.8-11.57 2.13-4.54.41-9.18.22-13.23 2.53-1.73.98-3.06 2.385-4.65 3.53-.68-3.285-1.05-6.62-2.82-9.594-.93.8-1.74 1.22-1.91 2.5-.13 1.04.23 2.4.39 3.42.11.74.27 1.47.42 2.2-.55 2.83-1.17 5.97-.3 8.6.96 2.88 1.32 5.97.93 8.98-.167 1.27-.46 2.51-.88 3.71-.38 1.07-.47 1.19-.34 2.29.1.83.51 1.75.734 2.55.986 3.42 1.97 6.83 2.94 10.26.126.44.253.89.385 1.33.44 4.16.91 8.323 1.34 12.485.15 1.404 1.97 6.82-.85 6.12-1.44-.36-1.94-2.248-2.58-3.37-2.75-4.77-4.88-9.946-8.07-14.44-3.47-4.89-6.51-10.047-9.45-15.26-2.58-4.57-6.24-9.31-6.11-14.78-.047.54-.09.92-.017-.38.26-2.426-.03-6.23 1.75-8.16.72-.78 1.67-1.136 2.71-.94 1.19.22 1.89 1.43 3.01 1.65.4.08.71.08.95.03.32 1.053.69 2.043 1.03 2.87.65 1.56 1.49 3.04 2.512 4.39 1.21 1.59 2.43 1.19 1.94-.818-.95-3.87-3.78-7.85-3.25-11.984.11-.993.78-2.93-.16-3.715-1.31-1.09-2.59 1.02-2.86 2.09-.25 1-.24 2.19-.078 3.43-.27-.31-.53-.57-.74-.72-2.14-1.46-4.57-1.3-6.75.01-2.6 1.57-2.85 4.67-3.3 7.41-.49 2.96-1.07 5.97-.32 8.93.75 2.97 2.68 5.58 4.2 8.2 1.76 3.02 3.51 6.06 5.3 9.06 3.03 5.09 6.39 9.99 9.29 15.16 2.73 4.87 4.59 10.08 8.1 14.5.98 1.23 1.85 2.06 3.1 2.9.81.55 1.43 1.01 1.93 1.88 1.08 1.89 1.27 4.48 1.7 6.56l1.11 5.39c.11 3.01 5.15 25.22 6.6 28.27 1.51 3.18 3.04 6.35 4.66 9.47 2.92 5.648 6.86 10.52 10.22 15.93 6.71 10.8 22.54 18.71 23.51 19.6 4.17 3.82 10.626 8.9 15.36 12.1 9.84 6.66 21.51 8.57 33.19 8.47 11.656-.11 25.39-2.07 33.578-11.23 3.36-3.755 36.59-27.58 46.75-58.19 1.11-3.35 8.71-25.17 7.76-33.07-.433-3.37.024-5.97-1.95-9.014zM113.22 152.68c-4.845 2.208-4.845 2.208-8.226 1.755 2.29-2.24 4.905-2.52 8.227-1.756zm-37.91 28.37c-.14-.986-.362-4.01-1.414-5.22.07-1.63.153-3.27.23-4.897.813.858 1.79 1.54 3.03 1.84 1.262-.742-.938-5.056-2.305-7.838.58-1.784 1.65-3.237 3.61-4.58 2.93-2.006 6.42-2.13 9.83-2.5 3.94-.432 7.88-.792 11.82-1.202-.2 1.32-.12 1.942-.98 3.018-.89 1.12-1.94 2.15-2.91 3.19-1.78 1.92-3.5 3.87-5.2 5.85 1.38.07 2.05.42 3.23-.36 1.09-.71 2.08-1.6 3.07-2.43.96-.81 5.51-4.18 6.44-4.03 2.15.33 2.25 2.88 3.18 3.05 3.14.57 6.38-.02 9.56-.17 3.19-.15 6.37-.45 9.51-1.04 1.42-.27 2.06-.48 3.02-1.78.9-1.22-.24-4.39.57-5.09 1.61-1.37 8.04 2.31 9.26 3.31 1.83 1.49 2.41 3.44 2.56 5.73.21 3.27.31 6.62-.26 9.86-.49 2.8-1.67 5.3-2.84 7.88-1.3 2.88-2.39 6.23-4.21 8.83-1.3 1.85-3.22 3.61-5.26 4.63-2.65 1.32-5.83.69-8.66 1.32-6.12 1.36-12.24.76-18.44.21-6.08-.55-12.21-1.72-17.62-4.69-2.74-1.5-6.19-3.89-8.35-6.84-.07-2.01-.13-4.03-.41-5.99z"/>
  <path d="M211.225 242.23c.596-1.153.377-1.38.23-2.65-2.285.83-4.564 1.663-6.853 2.49.067-.06.135-.122.207-.18-.02.005-.03.01-.05.01-.02.01-.02.02-.04.038-9.63 6.492-21.52.787-32.17 2.03-2.51.29-4.76 1.45-7.29 1.703-2.27.23-4.53.05-6.79-.13-5.15-.4-10.45-1.07-15.61-.88-5 .19-9.12 2.75-13.96 3.47-2.73.4-5.51.27-8.19-.32-.8-.17-4.98-1.61-4.38.46.18.61 2.32 1.64 2.83 2.01.88.65 1.73 1.35 2.54 2.09 1.57 1.45 2.74 3.08 4.06 4.75 1.31 1.67 3.32 3.02 4.87 4.52 1.54 1.49 2.93 3.18 4.57 4.56 3.67 3.1 8.48 4.54 13.06 5.68 2.4.6 4.83 1.09 7.24 1.62 1.77.39 3.71.98 5.03-.7-3.1-1.33-6.2-2.73-9.47-3.58-2.96-.77-5.96-1.19-8.78-2.45-5.27-2.36-10.08-7.56-13.2-12.38 1.74 1.24 3.16 2.38 5.26 3.15 2.08.77 4.04 1.84 5.98 2.92 3.91 2.18 8.52 4.71 13.06 5.13 4.31.4 8.86-1.16 13.12-1.74 4.4-.6 9.03-.38 13.36-1.29 3.81-.81 7.65-3.01 11.01-4.95 1.91-1.1 3.8-2.29 5.42-3.79 1.39-1.29 2.48-3.02 3.99-4.18 1.16-.89 2.9-1.73 2.83.29-.05 1.36-.87 3.05-1.46 4.26-1.76 3.61-5.01 5.55-8.34 7.54-7.48 4.47-16.15 6.39-23.44 11.18 2.29 1.46 4.94-.02 7.25-.76 2.58-.82 5.13-1.7 7.7-2.55 4.56-1.5 9.1-3.19 13.12-5.86 4.16-2.77 6.73-6.58 8.82-11.06 1.11-2.38 1.95-4.85 2.91-7.29.41-1.07.94-2.07 1.47-3.1zm-72.587 12.214c-1.044-.422-2.957-1.613-2.776-2.95.215-1.59 2.838-1.74 3.997-2.073.3.15.43.25.5.32 2.37 1.75 1.87 6.17-1.73 4.71zm6.53 3.172c-2.52-.596-2.333-2.676-2.54-4.85.322-1.78.807-4.83 3.464-3.804 1.862.724 2.922 3.427 2.788 5.27-.162 2.255-1.353 3.94-3.713 3.384zm14.69 3.13c-13.402 5.567-9.838-8.39-7.68-10.603 1.574-1.617 4.64-1.2 6.232.192 1.706 1.51 3.913 9.387 1.448 10.41zm5.107-.458c-2.615-.545-1.26-8.002.138-9.803 1.302-1.674 4.235-2.65 6.083-1.36 2.54 1.77 7.986 14.127-6.22 11.163zm19.02-7.057c-.136 2.09-.977 3.8-3.13 4.46-1.147.35-2.644.57-3.668-.19-1.192-.89-1.045-2.51-1.082-3.88-.07-2.32.3-4.53 2.883-4.99 3.45-.62 4.777.91 5.027 4.15-.038 2.48-.046 1.27-.03.47zm5.126 2.05c-2.18.71-3.41-.09-3.19-4.49.07-1.27 1.22-1.96 2.61-2.17.08 0 .14 0 .17-.01 2.27-.27 5.06.73 4.82 2.65-.31 2.56-3.16 3.63-4.4 4.03zm15.5-13.2l.01-.01c0 .01 0 .01-.01.01.01 0 0 0 0 0zm17.69-83.38c-4.24-1.42-8.27-3.19-12.76-3.69-2.21-.24-4.33-.91-6.53-1.21-2.18-.3-4.4-.21-6.51-.96 1.18-1.16 2.75-1.05 4.22-1.46.59-.16 1.33-.35 1.7-.88.68-.97-.16-1.13-1.06-1.63-3.06-1.68-7.48-.11-10.74.45-3.98.69-7.9 1.75-11.94 2-2.76.18-5.2.54-7.01 2.86-1.01 1.3-1.66 2.92-2.42 4.37-.65 1.25-1.17 3.23-2.28 4.17-1.5 1.28-3.71-.22-5.36.67-1.27.69-1.09 2.06-.03 2.74 1.12.72 2.37.91 3.35 1.91.91.93 1.42 2.13 1.73 3.38.88 3.5 1.42 7.26 2.83 10.6 1.43 3.37 4.29 5.81 6.9 8.27 1.52 1.43 3.06 2.83 4.61 4.23 1.34 1.22 2.53 2.36 4.21.85-2.04-2.55-4.14-5.04-6.39-7.39-1.11-1.15-2.24-2.27-3.43-3.35-.47-.42-1.43-1.03-1.78-1.55-.4-.59-.51-1.77-.7-2.45-1.75-6.08-4.06-12.1-2.66-18.5.57-2.62 1.62-4.98 4.18-6.16 2.61-1.19 6.06-1.39 8.88-1.52 1.02-.05 6.24.16 5.82 1.14-.75 1.75-2.17 1.89-1.03 5.52.6 1.91-12.27-.66-11.61 2.46 2.86 0 9.06.17 11.9.56 2.71.38 5.2-.26 7.93 0 7.1.68 11.78-.9 17.35-1.62-1.18-1.25-3.1-.45-4.42-1.18-.03.05-.17-.03-.51-.39-.82-5.38 7.07-1.73 9.06-1.01 1.48.54 4.97 2.15 6.51 1.23 1.9-1.15-.91-2.05-1.925-2.38zm-96.98 48.8c-2.06 1.24-3.04 3.36-4.31 5.3-1.27 1.95-2.6 3.85-4 5.7-2.9 3.84-6.22 7.25-8.79 11.32-.97 1.55-1.99 2.41-3.89 2.17-2.11-.27-3.57.93-5.42 1.98-2.11 1.2-4.71 2.27-6.58 3.82-1.94 1.61-.14 2.46 1.67 2.13 2.09-.39 4.06-1.46 5.86-2.53 1.37-.81 2.73-2.01 4.38-1.91.1-.01.27 0 .58.07.2.22.25.32.25.4.6.94.49 2.03.58 3.14.11 1.24.41 2.46.66 3.69.43 2.13.71 4.92 2.33 6.53.49.48 1.58 1.25 2.33.68.78-.6.18-2.14.05-2.96-.39-2.49-1.14-4.95-1.27-7.47-.51-9.61 7.89-16.16 12.85-23.44 1.4-2.05 2.69-4.18 3.84-6.38.72-1.36.88-3.41-1.09-2.22zm12.8 8.18c-1.16.21-1.62 1.41-.77 2.4 1.55 1.8 5.96 1.32 8.41 1.32.15-.01 6.77 5.15 11.4 5.73 4.27.53 8.06-.39 12.08-1.75 3.53-1.19 7.81-2.19 11.01-4.12 1.18-.71 2.44-1.55 1.92-3.03-.43-1.22-1.71-1.86-2.93-1.82-3.25.09-6.88 2.36-9.54 4.03-2.74 1.72-5.68 3.21-8.95 3.51-3.24.3-6.31-.72-8.85-2.7-2.8-2.18-4.63-3.79-8.33-3.32-1.77.23-3.71-.52-5.4-.22zm82.54 26.16c1.45-.53 2.57-2.89 2.79-4.3.62-3.88-3.19-7.98-5.33-10.85-5.27-7.04-11.61-13.27-18.08-19.19-.7-.65-2.76-3.27-3.96-2.39-1.4 1.05 1.11 3.56 1.65 4.31 2.5 3.41 5.75 6.08 8.52 9.27 2.75 3.18 5.42 6.41 8.28 9.5 2.52 2.71 5.99 7.15 4.6 11.07-.18 1.2-.38 3.29 1.55 2.59z"/>
  <path d="M203.668 177.667c1.61-1.594 3.756-2.15 5.815-2.96 3.136-1.237 8.138-3.245 9.312-6.76-.182.032-.627-.167-.98-.126-.773.1-1.397.56-2.04.94-1.127.67-2.35 1.56-3.6 1.98-1.607.53-2.425.12-3.216-1.19-.68-1.1-1.17-1.53-2.32-.7-1.26.91-2.23 2.11-3.6 2.92-1.46.87-3.04 1.51-4.67 1.93-3.28.86-6.73.89-10.09.66.62 1.46.44 2.09 2.07 2.55 1.24.35 2.51.34 3.78.16 1.41-.19 2.79-.58 4.19-.85.93-.17 2.04-.21 2.94-.59-.03.18.26.44.06.91-.18.44-.33.83-.56 1.26-.55 1-1.15 1.82-.61 2.98.05.1 3.04-2.65 3.48-3.09zm21.527 14.416c-1.59.422-3.202.76-4.82 1.033-3.25.55-6.524.826-9.81 1.04-3.324.22-6.607.73-9.923 1.056-2.356.23-10.062-1.014-11.192-.307-2.064.14-2.604 4.195 14.33 3.65 3.506-.11 6.99-.943 10.47-1.455 3.47-.51 6.876-1.115 10.214-2.25.88-.302 10.562-4.498 8.594-6.18-.966-.812-6.847 3.143-7.863 3.413zm-92.198 83.53c-3.535-2.452-6.42-6.15-10.777-7.11-2.512 1.82 0 2.914 1.762 4.236 2.107 1.57 4.137 3.26 6.145 4.97 1.843 1.56 3.71 2.88 6.006 3.71 1.145.41 4.97 1.89 6.01.81 1.712-1.79-2.01-2.79-2.984-3.21-2.17-.93-4.24-2.08-6.17-3.42zm57.49-87.986c1.952.45 3.975.654 5.98.615 1.525-.03 9.28-.28 9.4-2.523.082-1.64-7.57-.43-8.78-.42-3.59.04-6.98-.21-10.554.13 1.406 1.11 2.182 1.78 3.953 2.19zm19.05 45.003c.77-3.022-2.098-1.427-3.284-.564-1.258.914-2.398 1.973-3.713 2.817-.914.59-2.263 1.103-2.883 2.03-.646.964-.64 1.93.395 2.55 1.243.746 8.874-4.44 9.484-6.834zm20.05.06c2.31-.732 4.73-1.254 6.87-2.433.97-.534 4.805-3.184 4.123-4.674-.738-1.625-6.83 2.03-7.832 2.508-1.054.5-3.453 1.14-4.15 2.01-.963 1.21.11 1.85.99 2.59zm-38.172-27.057c-.54-1.002-1.447-2.516-2.67-2.74-.94-.174-1.847.476-1.916 1.425-.07.938 1.56 3.076 1.97 3.947.6 1.264 1.12 2.567 1.45 3.932.19.783-.04 3.402 1.09 3.3.94-.09 1.02-1.65 1.25-2.4.22-2.83.09-1.522.02-.608.12-2.36-.08-4.77-1.21-6.86zm-15.248 1.677c.076-.65.115-1.13.127-1.482.27-3.97.533-13.676-2.517-12.334-2.062.906-.276 6.188.017 7.7.274 1.42.334 3.296.918 4.612.34.784.72.94 1.455 1.504zm-52.617 37.907c1.567-.223 3.502-1.532 1.46-2.82-.96-.608-2.506-.852-3.6-1.2-.998-.318-2.396-1.04-3.45-1.05-2.313-.018-1.392 2.386-.19 3.327 1.44 1.13 3.357 1.59 5.174 1.7-.396 0-.613.02.606.043zm21.855-36.917c1.305-.642.656-4.22.287-5.25-.52-1.47-1.645-3.343-3.203-3.742-.89.993-.92 1.086-.62 2.518.2.99.49 1.967.84 2.918.31.848 1.32 4.23 2.69 3.557zm-31.575 49.622c1.06-.198 2.233-.32 3.263-.664 1.167-.387.95-.396 1.447-1.463-1.274-2.183-8.35-1.535-8.41 1.59-.04 1.94 2.565.748 3.7.537zm84.462 15.442c-1.027 1.064-1.23 1.26-1.054 2.676.316-.62 1.722-1.244 2.425-1.797.957-.748 1.828-1.605 2.646-2.496 1.59-1.738 3.65-3.64 3.92-5.994-1 0-3.57 3.176-4.6 4.213-1.12 1.128-2.24 2.258-3.34 3.398zm-39.744-109.46c.418-1.367-7.228-1.86-8.25-.15-1.48 2.49 7.34 3.12 8.25.15zm50.636 96.824c-.15-.12-.23-.285-.07.026.023-.01.047-.02.07-.026z"/>
  <path d="M200.07 180.558c-.008.01-.016.014-.022.02.087.014.138.03.022-.02zm-88.516 1.342c-2.88.117 6.732.526 0 0z"/>
  <path d="M103.47 180.456c2.362 1.482 5.392 1.555 8.084 1.447 5.57.438 10.787-1.644 15.198-4.93.592-.44 4.84-3.61 2.39-4.18-.98-.227-3.1 1.105-3.888 1.602-1.21.756-2.41 1.48-3.73 2.047-5.594 2.412-10.7 1.61-16.51.938-1-.115-2.574-.393-2.923.914-.26.998.68 1.716 1.38 2.162zm7.84 8.644c-1.32-.07-3.338-.57-4.608-.228-.96.262-1.45 1.392-2.01 2.183 2.807.495 5.86 1.397 8.71 1.446 1.097.03 7.134-.39 6.404-2.47-.414-1.19-7.242-.85-8.497-.92zm10.18-17.357c1.104-.277 2.187-.646 3.224-1.115 1.58-.713 5.166-2.36 5.162-4.27-1.402-1.078-1.947-.45-3.56.232-1.376.58-2.74 1.172-4.108 1.77-.746.325-6.812 2.5-4.383 3.907.715.414 2.886-.33 3.664-.524z"/>
</svg>